<svg width="21" height="21" viewBox="0 0 21 21" fill="none" xmlns="http://www.w3.org/2000/svg">
<path d="M1.41881 15.0831C1.1717 15.8641 1.7071 16.6862 2.53079 16.8095L3.06619 16.8917C3.64277 16.9739 4.0958 17.426 4.21936 18.0015L4.30173 18.5359C4.42528 19.3579 5.24897 19.8512 6.07266 19.6046L6.60806 19.4401C7.18464 19.2757 7.80241 19.4812 8.13189 19.9745L8.46136 20.4266C8.95558 21.0843 9.90282 21.2076 10.5206 20.6322L10.9324 20.2622C11.3855 19.8512 12.0032 19.769 12.5386 20.0567L13.0328 20.3033C13.7742 20.7144 14.6802 20.3855 14.9685 19.6046L15.1744 19.1113C15.3804 18.577 15.957 18.207 16.5335 18.2481L17.0689 18.2892C17.8926 18.3303 18.5928 17.6316 18.5104 16.8095L18.4692 16.2751C18.428 15.6997 18.7575 15.1242 19.3341 14.9187L19.8283 14.7132C20.5858 14.3948 20.8802 13.5372 20.5246 12.8489C20.501 12.8032 20.4709 12.7613 20.4383 12.7216L20.1667 12.3903C20.1333 12.3496 20.1025 12.3067 20.0789 12.2596C19.8365 11.7754 19.9278 11.1573 20.2813 10.7261L20.652 10.315C21.1874 9.69847 21.105 8.75307 20.4049 8.25982L19.9519 7.9721C19.4576 7.64326 19.2517 7.0267 19.4165 6.45124L19.5812 5.91689C19.8283 5.13591 19.2929 4.31383 18.4692 4.19052L17.9338 4.10831C17.3572 4.0261 16.9042 3.57396 16.7806 2.9985L16.6983 2.46414C16.5747 1.64206 15.751 1.14881 14.9273 1.39544L14.3919 1.55985C13.8154 1.72427 13.1976 1.51875 12.8681 1.0255L12.5386 0.573354C12.0444 -0.0843115 11.0972 -0.207624 10.4794 0.367834L10.0676 0.737771C9.61453 1.14881 8.99676 1.23102 8.46136 0.943292L7.96715 0.696667C7.22583 0.285626 6.31977 0.614459 6.03148 1.39544L5.82555 1.88869C5.61963 2.42304 5.04305 2.79298 4.46646 2.75187L4.01343 2.66966C3.18974 2.62856 2.48961 3.32733 2.57197 4.14941L2.61316 4.68377C2.65434 5.25922 2.32487 5.83468 1.74828 6.0402L1.25407 6.24572C0.471562 6.57456 0.183271 7.47885 0.595117 8.17762L0.883408 8.62976C1.1717 9.12301 1.08933 9.78068 0.71867 10.2328L0.348009 10.6439C-0.18739 11.2604 -0.105021 12.2058 0.595117 12.6991L1.04815 12.9868C1.54236 13.3156 1.74828 13.9322 1.58355 14.5077L1.41881 15.0831ZM6.71735 9.6716C7.11083 9.27889 7.74905 9.28248 8.13809 9.67958L8.54087 10.0907C8.92861 10.4865 9.56423 10.4916 9.95824 10.102L12.903 7.19071C13.2939 6.80426 13.9235 6.80575 14.3125 7.19405L14.788 7.66857C15.182 8.06188 15.179 8.70131 14.7812 9.09086L11.1384 12.658L9.95029 13.8437C9.55992 14.2333 8.92782 14.2333 8.53745 13.8437L7.34938 12.658L6.24644 11.5572C5.855 11.1665 5.855 10.5323 6.24644 10.1416L6.71735 9.6716Z" fill="#BBC395"/>
</svg>
