<svg width="152" height="55" viewBox="0 0 152 55" fill="none" xmlns="http://www.w3.org/2000/svg">
<path d="M-6.83561e-05 24.535L0.0699316 24.185L0.839932 23.87C1.60993 23.5433 2.0766 22.9833 2.23993 22.19L4.09493 12.285C4.32827 11.0483 4.57327 9.68333 4.82993 8.19C5.0866 6.67333 5.3316 5.23833 5.56493 3.885C5.72827 2.95166 5.3666 2.31 4.47993 1.96L4.12993 1.785L4.19993 1.435H20.3699L19.3899 7.525H19.0399L18.2699 4.55C18.0133 3.66333 17.6516 3.045 17.1849 2.695C16.7183 2.32167 16.0066 2.135 15.0499 2.135H10.7449L8.81993 12.285H11.4449C12.0983 12.285 12.6349 12.18 13.0549 11.97C13.4983 11.7367 13.9066 11.3633 14.2799 10.85L15.6449 9.065H15.9949L14.6299 16.38H14.2799L13.7199 14.805C13.5099 14.175 13.2299 13.72 12.8799 13.44C12.5533 13.1367 12.0516 12.985 11.3749 12.985H8.67993C8.5166 13.8483 8.32993 14.8167 8.11993 15.89C7.93327 16.94 7.7466 18.0133 7.55993 19.11C7.37327 20.1833 7.19827 21.1867 7.03493 22.12C6.89493 22.9833 7.2216 23.5667 8.01493 23.87L8.85493 24.185L8.78493 24.535H-6.83561e-05ZM24.4463 25.06C22.6963 25.06 21.273 24.4883 20.1763 23.345C19.0797 22.2017 18.5313 20.58 18.5313 18.48C18.5313 16.9867 18.788 15.5633 19.3013 14.21C19.8147 12.8567 20.5263 11.655 21.4363 10.605C22.3697 9.53167 23.443 8.69167 24.6563 8.085C25.8697 7.47833 27.188 7.175 28.6113 7.175C30.0813 7.175 31.2013 7.51333 31.9713 8.19C32.7647 8.84333 33.1613 9.71833 33.1613 10.815C33.1613 11.725 32.7297 12.6233 31.8663 13.51C31.0263 14.3967 29.8363 15.2017 28.2963 15.925C26.7563 16.625 24.948 17.1617 22.8713 17.535C22.8947 19.145 23.2447 20.3233 23.9213 21.07C24.598 21.8167 25.5313 22.19 26.7213 22.19C27.7247 22.19 28.6463 21.9217 29.4863 21.385C30.3263 20.825 31.038 20.1717 31.6213 19.425L31.9713 19.67C31.5047 20.58 30.898 21.4433 30.1513 22.26C29.428 23.0767 28.588 23.7533 27.6313 24.29C26.6747 24.8033 25.613 25.06 24.4463 25.06ZM28.3663 8.12C27.8297 8.12 27.2463 8.35333 26.6163 8.82C26.0097 9.28667 25.4263 9.92833 24.8663 10.745C24.3297 11.5383 23.8747 12.46 23.5013 13.51C23.1513 14.5367 22.9413 15.6333 22.8713 16.8C25.438 16.1 27.258 15.1783 28.3313 14.035C29.428 12.8917 29.9763 11.5967 29.9763 10.15C29.9763 9.45 29.8247 8.93667 29.5213 8.61C29.218 8.28333 28.833 8.12 28.3663 8.12ZM34.3183 24.78L33.9683 24.535L36.6283 11.725C36.7449 11.1183 36.7099 10.675 36.5233 10.395C36.3366 10.0917 36.0216 9.84667 35.5783 9.66L35.0533 9.415L35.1233 9.065L41.2133 7.14L41.5633 7.455L40.6183 13.23C41.1083 12.11 41.6799 11.095 42.3333 10.185C42.9866 9.275 43.6749 8.55167 44.3983 8.015C45.1216 7.455 45.8449 7.175 46.5683 7.175C47.2916 7.175 47.8749 7.37333 48.3183 7.77C48.7616 8.14333 48.9833 8.645 48.9833 9.275C48.9833 9.92833 48.7849 10.465 48.3883 10.885C48.0149 11.305 47.5016 11.515 46.8483 11.515C46.3349 11.515 45.8449 11.3867 45.3783 11.13C44.9116 10.85 44.4566 10.4533 44.0133 9.94C43.1966 10.5467 42.4966 11.34 41.9133 12.32C41.3299 13.2767 40.7933 14.3267 40.3033 15.47L39.9533 17.08C39.6966 18.3167 39.4516 19.5533 39.2183 20.79C38.9849 22.0267 38.7516 23.275 38.5183 24.535L34.3183 24.78ZM49.1856 24.78L48.8706 24.535L51.5656 11.655C51.7756 10.745 51.4489 10.0917 50.5856 9.695L49.9906 9.415L50.0256 9.065L56.5356 7.14L56.8506 7.42L56.0456 11.655C57.2589 10.2783 58.4956 9.19333 59.7556 8.4C61.0156 7.58333 62.2056 7.175 63.3256 7.175C64.0723 7.175 64.6906 7.40833 65.1806 7.875C65.6706 8.31833 65.9156 9.01833 65.9156 9.975C65.9156 10.465 65.8689 10.9783 65.7756 11.515C65.6823 12.0283 65.5656 12.565 65.4256 13.125L63.5706 20.58C63.4773 20.9533 63.4073 21.2683 63.3606 21.525C63.3139 21.7583 63.2906 21.9683 63.2906 22.155C63.2906 22.645 63.4889 22.89 63.8856 22.89C64.5389 22.89 65.3673 22.365 66.3706 21.315L66.7206 21.665C66.1373 22.5283 65.3673 23.31 64.4106 24.01C63.4539 24.71 62.3923 25.06 61.2256 25.06C60.4556 25.06 59.8606 24.885 59.4406 24.535C59.0206 24.1617 58.8106 23.6483 58.8106 22.995C58.8106 22.505 58.8689 22.0033 58.9856 21.49C59.1023 20.9533 59.2306 20.405 59.3706 19.845L60.7356 14.385C60.9223 13.6383 61.0739 12.9733 61.1906 12.39C61.3073 11.8067 61.3656 11.27 61.3656 10.78C61.3656 10.36 61.2723 10.0683 61.0856 9.905C60.8989 9.71833 60.6423 9.625 60.3156 9.625C59.7556 9.625 59.0906 9.87 58.3206 10.36C57.5739 10.85 56.7456 11.62 55.8356 12.67L54.8556 17.08C54.5989 18.3167 54.3539 19.5533 54.1206 20.79C53.8873 22.0267 53.6539 23.275 53.4206 24.535L49.1856 24.78ZM72.3813 25.06C71.728 25.06 71.1096 24.9083 70.5263 24.605C69.943 24.3017 69.4646 23.8 69.0913 23.1C68.7413 22.4 68.5663 21.4783 68.5663 20.335C68.5663 19.0983 68.8113 17.8617 69.3013 16.625C69.7913 15.365 70.4446 14.175 71.2613 13.055C72.078 11.9117 72.988 10.9083 73.9913 10.045C74.9946 9.15833 76.033 8.45833 77.1063 7.945C78.1796 7.43167 79.1946 7.175 80.1513 7.175C80.618 7.175 81.0496 7.26833 81.4463 7.455C81.8663 7.61833 82.263 7.85167 82.6363 8.155L85.4713 7.07L85.7513 7.245L82.7063 20.65C82.543 21.3033 82.4613 21.84 82.4613 22.26C82.4613 22.75 82.683 22.995 83.1263 22.995C83.453 22.995 83.8263 22.8433 84.2463 22.54C84.6896 22.2367 85.1913 21.8283 85.7513 21.315L86.0313 21.595C85.6813 22.155 85.238 22.7033 84.7013 23.24C84.188 23.7533 83.6046 24.185 82.9513 24.535C82.3213 24.885 81.6446 25.06 80.9213 25.06C80.128 25.06 79.4863 24.8267 78.9963 24.36C78.5063 23.87 78.2613 23.1233 78.2613 22.12C78.2613 21.7933 78.273 21.4783 78.2963 21.175C77.363 22.225 76.3713 23.135 75.3213 23.905C74.2946 24.675 73.3146 25.06 72.3813 25.06ZM72.6963 18.76C72.6963 19.9967 72.8946 20.895 73.2913 21.455C73.7113 21.9917 74.2596 22.26 74.9363 22.26C75.4963 22.26 76.0563 22.085 76.6163 21.735C77.1763 21.385 77.783 20.8833 78.4363 20.23C78.483 19.95 78.5413 19.6583 78.6113 19.355L80.8163 9.275C80.513 8.90167 80.1513 8.645 79.7313 8.505C79.3113 8.365 78.938 8.295 78.6113 8.295C77.608 8.295 76.558 8.89 75.4613 10.08C74.598 11.0367 73.9213 12.2967 73.4313 13.86C72.9413 15.4233 72.6963 17.0567 72.6963 18.76ZM88.0821 24.78L87.7671 24.535L90.4621 11.655C90.6721 10.745 90.3454 10.0917 89.4821 9.695L88.8871 9.415L88.9221 9.065L95.4321 7.14L95.7471 7.42L94.9421 11.655C96.1554 10.2783 97.3921 9.19333 98.6521 8.4C99.9121 7.58333 101.102 7.175 102.222 7.175C102.969 7.175 103.587 7.40833 104.077 7.875C104.567 8.31833 104.812 9.01833 104.812 9.975C104.812 10.465 104.765 10.9783 104.672 11.515C104.579 12.0283 104.462 12.565 104.322 13.125L102.467 20.58C102.374 20.9533 102.304 21.2683 102.257 21.525C102.21 21.7583 102.187 21.9683 102.187 22.155C102.187 22.645 102.385 22.89 102.782 22.89C103.435 22.89 104.264 22.365 105.267 21.315L105.617 21.665C105.034 22.5283 104.264 23.31 103.307 24.01C102.35 24.71 101.289 25.06 100.122 25.06C99.3521 25.06 98.7571 24.885 98.3371 24.535C97.9171 24.1617 97.7071 23.6483 97.7071 22.995C97.7071 22.505 97.7654 22.0033 97.8821 21.49C97.9987 20.9533 98.1271 20.405 98.2671 19.845L99.6321 14.385C99.8187 13.6383 99.9704 12.9733 100.087 12.39C100.204 11.8067 100.262 11.27 100.262 10.78C100.262 10.36 100.169 10.0683 99.9821 9.905C99.7954 9.71833 99.5387 9.625 99.2121 9.625C98.6521 9.625 97.9871 9.87 97.2171 10.36C96.4704 10.85 95.6421 11.62 94.7321 12.67L93.7521 17.08C93.4954 18.3167 93.2504 19.5533 93.0171 20.79C92.7837 22.0267 92.5504 23.275 92.3171 24.535L88.0821 24.78ZM111.033 25.06C110.099 25.06 109.271 24.6983 108.548 23.975C107.848 23.2517 107.498 21.9917 107.498 20.195C107.498 18.9817 107.731 17.7567 108.198 16.52C108.664 15.2833 109.283 14.1167 110.053 13.02C110.846 11.9 111.733 10.8967 112.713 10.01C113.716 9.12333 114.754 8.435 115.828 7.945C116.901 7.43167 117.951 7.175 118.978 7.175C119.444 7.175 119.888 7.245 120.308 7.385L120.833 4.76C121.043 3.71 120.658 2.99833 119.678 2.625L118.908 2.31L118.978 1.96L125.768 -1.37091e-06L126.013 0.245L121.708 20.615C121.638 20.9883 121.579 21.3033 121.533 21.56C121.509 21.7933 121.498 22.0267 121.498 22.26C121.498 22.75 121.696 22.995 122.093 22.995C122.373 22.995 122.746 22.855 123.213 22.575C123.703 22.2717 124.193 21.8283 124.683 21.245L125.068 21.595C124.508 22.5283 123.749 23.345 122.793 24.045C121.836 24.7217 120.821 25.06 119.748 25.06C118.978 25.06 118.371 24.815 117.928 24.325C117.484 23.8117 117.263 23.1583 117.263 22.365C117.263 21.9683 117.298 21.5017 117.368 20.965C116.411 22.1783 115.361 23.17 114.218 23.94C113.098 24.6867 112.036 25.06 111.033 25.06ZM111.768 19.075C111.768 20.2417 111.954 21.0817 112.328 21.595C112.701 22.1083 113.191 22.365 113.798 22.365C114.871 22.365 116.108 21.5483 117.508 19.915C117.531 19.7983 117.554 19.67 117.578 19.53L119.713 9.205C119.129 8.66833 118.441 8.4 117.648 8.4C117.064 8.4 116.516 8.54 116.003 8.82C115.513 9.07667 115.046 9.45 114.603 9.94C114.066 10.5467 113.576 11.3633 113.133 12.39C112.713 13.3933 112.374 14.49 112.118 15.68C111.884 16.8467 111.768 17.9783 111.768 19.075ZM130.521 25.06C129.868 25.06 129.249 24.9083 128.666 24.605C128.083 24.3017 127.604 23.8 127.231 23.1C126.881 22.4 126.706 21.4783 126.706 20.335C126.706 19.0983 126.951 17.8617 127.441 16.625C127.931 15.365 128.584 14.175 129.401 13.055C130.218 11.9117 131.128 10.9083 132.131 10.045C133.134 9.15833 134.173 8.45833 135.246 7.945C136.319 7.43167 137.334 7.175 138.291 7.175C138.758 7.175 139.189 7.26833 139.586 7.455C140.006 7.61833 140.403 7.85167 140.776 8.155L143.611 7.07L143.891 7.245L140.846 20.65C140.683 21.3033 140.601 21.84 140.601 22.26C140.601 22.75 140.823 22.995 141.266 22.995C141.593 22.995 141.966 22.8433 142.386 22.54C142.829 22.2367 143.331 21.8283 143.891 21.315L144.171 21.595C143.821 22.155 143.378 22.7033 142.841 23.24C142.328 23.7533 141.744 24.185 141.091 24.535C140.461 24.885 139.784 25.06 139.061 25.06C138.268 25.06 137.626 24.8267 137.136 24.36C136.646 23.87 136.401 23.1233 136.401 22.12C136.401 21.7933 136.413 21.4783 136.436 21.175C135.503 22.225 134.511 23.135 133.461 23.905C132.434 24.675 131.454 25.06 130.521 25.06ZM130.836 18.76C130.836 19.9967 131.034 20.895 131.431 21.455C131.851 21.9917 132.399 22.26 133.076 22.26C133.636 22.26 134.196 22.085 134.756 21.735C135.316 21.385 135.923 20.8833 136.576 20.23C136.623 19.95 136.681 19.6583 136.751 19.355L138.956 9.275C138.653 8.90167 138.291 8.645 137.871 8.505C137.451 8.365 137.078 8.295 136.751 8.295C135.748 8.295 134.698 8.89 133.601 10.08C132.738 11.0367 132.061 12.2967 131.571 13.86C131.081 15.4233 130.836 17.0567 130.836 18.76ZM-6.83561e-05 53.535L0.104932 53.185L0.664932 52.94C1.1316 52.73 1.49327 52.4733 1.74993 52.17C2.0066 51.8667 2.1816 51.4583 2.27493 50.945L4.09493 41.285C4.32827 40.0483 4.57327 38.695 4.82993 37.225C5.0866 35.755 5.3316 34.3433 5.56493 32.99C5.70493 32.08 5.37827 31.4267 4.58493 31.03L4.12993 30.785L4.19993 30.435H12.0749C14.5016 30.435 16.5316 30.855 18.1649 31.695C19.7983 32.535 21.0233 33.69 21.8399 35.16C22.6566 36.63 23.0649 38.2983 23.0649 40.165C23.0649 42.265 22.6916 44.1433 21.9449 45.8C21.1983 47.4567 20.1716 48.8567 18.8649 50C17.5816 51.1433 16.0883 52.0183 14.3849 52.625C12.7049 53.2317 10.9083 53.535 8.99493 53.535H-6.83561e-05ZM6.75493 52.835H8.53993C10.5466 52.835 12.2499 52.275 13.6499 51.155C15.0499 50.035 16.1233 48.495 16.8699 46.535C17.6399 44.575 18.0249 42.3467 18.0249 39.85C18.0249 36.9567 17.4883 34.81 16.4149 33.41C15.3416 31.9867 13.7666 31.2283 11.6899 31.135H10.7449L8.53993 42.65C8.2366 44.3533 7.9216 46.0567 7.59493 47.76C7.2916 49.4633 7.0116 51.155 6.75493 52.835ZM28.5629 54.06C27.9096 54.06 27.2913 53.9083 26.7079 53.605C26.1246 53.3017 25.6463 52.8 25.2729 52.1C24.9229 51.4 24.7479 50.4783 24.7479 49.335C24.7479 48.0983 24.9929 46.8617 25.4829 45.625C25.9729 44.365 26.6263 43.175 27.4429 42.055C28.2596 40.9117 29.1696 39.9083 30.1729 39.045C31.1763 38.1583 32.2146 37.4583 33.2879 36.945C34.3613 36.4317 35.3763 36.175 36.3329 36.175C36.7996 36.175 37.2313 36.2683 37.6279 36.455C38.0479 36.6183 38.4446 36.8517 38.8179 37.155L41.6529 36.07L41.9329 36.245L38.8879 49.65C38.7246 50.3033 38.6429 50.84 38.6429 51.26C38.6429 51.75 38.8646 51.995 39.3079 51.995C39.6346 51.995 40.0079 51.8433 40.4279 51.54C40.8713 51.2367 41.3729 50.8283 41.9329 50.315L42.2129 50.595C41.8629 51.155 41.4196 51.7033 40.8829 52.24C40.3696 52.7533 39.7863 53.185 39.1329 53.535C38.5029 53.885 37.8263 54.06 37.1029 54.06C36.3096 54.06 35.6679 53.8267 35.1779 53.36C34.6879 52.87 34.4429 52.1233 34.4429 51.12C34.4429 50.7933 34.4546 50.4783 34.4779 50.175C33.5446 51.225 32.5529 52.135 31.5029 52.905C30.4763 53.675 29.4963 54.06 28.5629 54.06ZM28.8779 47.76C28.8779 48.9967 29.0763 49.895 29.4729 50.455C29.8929 50.9917 30.4413 51.26 31.1179 51.26C31.6779 51.26 32.2379 51.085 32.7979 50.735C33.3579 50.385 33.9646 49.8833 34.6179 49.23C34.6646 48.95 34.7229 48.6583 34.7929 48.355L36.9979 38.275C36.6946 37.9017 36.3329 37.645 35.9129 37.505C35.4929 37.365 35.1196 37.295 34.7929 37.295C33.7896 37.295 32.7396 37.89 31.6429 39.08C30.7796 40.0367 30.1029 41.2967 29.6129 42.86C29.1229 44.4233 28.8779 46.0567 28.8779 47.76ZM46.7162 54.06C45.9462 54.06 45.3278 53.8617 44.8612 53.465C44.4178 53.0683 44.1962 52.4967 44.1962 51.75C44.1962 51.33 44.2428 50.8283 44.3362 50.245C44.4295 49.6383 44.5695 48.8683 44.7562 47.935L46.7512 38.275C46.9378 37.3883 47.0895 36.5833 47.2062 35.86C47.3462 35.1367 47.4978 34.32 47.6612 33.41C47.8245 32.4767 47.4512 31.8467 46.5412 31.52L45.9462 31.31L46.0162 30.96L52.8762 29L53.0862 29.245L48.7812 49.545C48.7112 49.895 48.6528 50.21 48.6062 50.49C48.5595 50.7467 48.5362 50.9683 48.5362 51.155C48.5362 51.6683 48.7578 51.925 49.2012 51.925C49.7845 51.925 50.6362 51.4 51.7562 50.35L52.1062 50.63C51.5228 51.4933 50.7878 52.2867 49.9012 53.01C49.0145 53.71 47.9528 54.06 46.7162 54.06ZM60.0545 53.535L60.1245 53.185L60.5095 53.045C61.5128 52.695 62.1078 52.0183 62.2945 51.015L64.1145 41.285C64.3711 40.0017 64.6161 38.695 64.8495 37.365C65.0828 36.0117 65.3395 34.5183 65.6195 32.885C65.7828 31.9283 65.4095 31.275 64.4995 30.925L64.1495 30.785L64.2195 30.435H71.8495C74.8595 30.435 77.0411 31.0183 78.3945 32.185C79.7711 33.3283 80.4595 34.845 80.4595 36.735C80.4595 38.0883 80.0628 39.36 79.2695 40.55C78.4995 41.7167 77.3211 42.6617 75.7345 43.385C74.1711 44.085 72.1995 44.435 69.8195 44.435H68.2795C68.0928 45.3683 67.8945 46.4067 67.6845 47.55C67.4978 48.67 67.2995 49.8017 67.0895 50.945C66.9261 52.0183 67.3461 52.73 68.3495 53.08L68.7695 53.185L68.6995 53.535H60.0545ZM68.4195 43.735H69.7145C71.4878 43.735 72.9228 43.105 74.0195 41.845C75.1161 40.5617 75.6645 38.8 75.6645 36.56C75.6645 34.81 75.3145 33.4683 74.6145 32.535C73.9145 31.6017 72.9111 31.135 71.6045 31.135H70.7645C70.3911 33.235 70.0061 35.335 69.6095 37.435C69.2128 39.535 68.8161 41.635 68.4195 43.735ZM87.0952 34.215C86.4419 34.215 85.8702 34.005 85.3802 33.585C84.9136 33.1417 84.6802 32.5583 84.6802 31.835C84.6802 31.0183 84.9602 30.3533 85.5202 29.84C86.1036 29.3033 86.7569 29.035 87.4802 29.035C88.1802 29.035 88.7519 29.2567 89.1952 29.7C89.6386 30.1433 89.8602 30.715 89.8602 31.415C89.8602 32.2083 89.5802 32.8733 89.0202 33.41C88.4602 33.9467 87.8186 34.215 87.0952 34.215ZM83.8402 54.06C83.1169 54.06 82.5219 53.8733 82.0552 53.5C81.5886 53.1267 81.3552 52.5783 81.3552 51.855C81.3552 51.435 81.4019 50.9333 81.4952 50.35C81.5886 49.7667 81.6936 49.1833 81.8102 48.6L83.4552 40.725C83.6652 39.7683 83.3269 39.0917 82.4402 38.695L81.8802 38.415L81.9152 38.03L88.4952 36.14L88.8452 36.455L86.1152 49.125C86.0219 49.545 85.9519 49.9067 85.9052 50.21C85.8586 50.49 85.8352 50.77 85.8352 51.05C85.8352 51.5633 86.0686 51.82 86.5352 51.82C86.8852 51.82 87.2352 51.715 87.5852 51.505C87.9352 51.2717 88.3786 50.8983 88.9152 50.385L89.2302 50.7C88.6469 51.5633 87.9002 52.345 86.9902 53.045C86.1036 53.7217 85.0536 54.06 83.8402 54.06ZM90.5657 54.165L89.7957 53.395L101.311 41.425C100.447 41.2617 99.514 41.0867 98.5107 40.9C97.5307 40.69 96.469 40.4917 95.3257 40.305C94.2057 40.095 93.3424 40.5033 92.7357 41.53L92.5257 41.915L92.0357 41.81L93.1207 36.14C95.0107 36.49 96.959 36.8517 98.9657 37.225C100.996 37.5983 102.827 37.9017 104.461 38.135L106.281 36.245L107.121 37.085L95.9207 48.635C96.7374 49.4517 97.694 50.105 98.7907 50.595C99.9107 51.0617 101.031 51.295 102.151 51.295C102.547 51.295 102.909 51.2717 103.236 51.225C103.562 51.1783 103.842 51.1083 104.076 51.015C104.356 50.8983 104.496 50.7117 104.496 50.455C104.519 50.1983 104.402 49.9883 104.146 49.825C103.422 49.335 102.956 48.88 102.746 48.46C102.536 48.04 102.431 47.69 102.431 47.41C102.431 46.85 102.617 46.3833 102.991 46.01C103.387 45.6133 103.877 45.415 104.461 45.415C105.044 45.415 105.522 45.625 105.896 46.045C106.292 46.4417 106.491 47.0483 106.491 47.865C106.491 49.055 106.211 50.1517 105.651 51.155C105.091 52.1583 104.321 52.9633 103.341 53.57C102.361 54.1767 101.229 54.48 99.9457 54.48C98.9657 54.48 97.9857 54.235 97.0057 53.745C96.049 53.255 95.2557 52.6717 94.6257 51.995L93.6807 50.98L90.5657 54.165ZM107.485 54.165L106.715 53.395L118.23 41.425C117.366 41.2617 116.433 41.0867 115.43 40.9C114.45 40.69 113.388 40.4917 112.245 40.305C111.125 40.095 110.261 40.5033 109.655 41.53L109.445 41.915L108.955 41.81L110.04 36.14C111.93 36.49 113.878 36.8517 115.885 37.225C117.915 37.5983 119.746 37.9017 121.38 38.135L123.2 36.245L124.04 37.085L112.84 48.635C113.656 49.4517 114.613 50.105 115.71 50.595C116.83 51.0617 117.95 51.295 119.07 51.295C119.466 51.295 119.828 51.2717 120.155 51.225C120.481 51.1783 120.761 51.1083 120.995 51.015C121.275 50.8983 121.415 50.7117 121.415 50.455C121.438 50.1983 121.321 49.9883 121.065 49.825C120.341 49.335 119.875 48.88 119.665 48.46C119.455 48.04 119.35 47.69 119.35 47.41C119.35 46.85 119.536 46.3833 119.91 46.01C120.306 45.6133 120.796 45.415 121.38 45.415C121.963 45.415 122.441 45.625 122.815 46.045C123.211 46.4417 123.41 47.0483 123.41 47.865C123.41 49.055 123.13 50.1517 122.57 51.155C122.01 52.1583 121.24 52.9633 120.26 53.57C119.28 54.1767 118.148 54.48 116.865 54.48C115.885 54.48 114.905 54.235 113.925 53.745C112.968 53.255 112.175 52.6717 111.545 51.995L110.6 50.98L107.485 54.165ZM131.784 54.06C130.57 54.06 129.462 53.8267 128.459 53.36C127.455 52.87 126.662 52.1467 126.079 51.19C125.495 50.21 125.204 48.9733 125.204 47.48C125.204 45.9867 125.449 44.5633 125.939 43.21C126.452 41.8567 127.164 40.655 128.074 39.605C128.984 38.5317 130.045 37.6917 131.259 37.085C132.472 36.4783 133.79 36.175 135.214 36.175C136.45 36.175 137.547 36.42 138.504 36.91C139.484 37.3767 140.254 38.0883 140.814 39.045C141.397 40.0017 141.689 41.2267 141.689 42.72C141.689 44.19 141.432 45.6133 140.919 46.99C140.429 48.3433 139.729 49.5567 138.819 50.63C137.932 51.68 136.882 52.52 135.669 53.15C134.479 53.7567 133.184 54.06 131.784 54.06ZM132.204 53.36C132.927 53.36 133.58 53.0333 134.164 52.38C134.77 51.7033 135.295 50.8167 135.739 49.72C136.182 48.6 136.52 47.375 136.754 46.045C136.987 44.6917 137.104 43.35 137.104 42.02C137.104 40.0833 136.905 38.7417 136.509 37.995C136.112 37.2483 135.599 36.875 134.969 36.875C134.222 36.875 133.534 37.2017 132.904 37.855C132.274 38.5083 131.725 39.3833 131.259 40.48C130.792 41.5767 130.43 42.79 130.174 44.12C129.917 45.45 129.789 46.78 129.789 48.11C129.789 50.0933 130.022 51.47 130.489 52.24C130.955 52.9867 131.527 53.36 132.204 53.36ZM145.564 54.06C144.794 54.06 144.176 53.8617 143.709 53.465C143.266 53.0683 143.044 52.4967 143.044 51.75C143.044 51.33 143.091 50.8283 143.184 50.245C143.277 49.6383 143.417 48.8683 143.604 47.935L145.599 38.275C145.786 37.3883 145.937 36.5833 146.054 35.86C146.194 35.1367 146.346 34.32 146.509 33.41C146.672 32.4767 146.299 31.8467 145.389 31.52L144.794 31.31L144.864 30.96L151.724 29L151.934 29.245L147.629 49.545C147.559 49.895 147.501 50.21 147.454 50.49C147.407 50.7467 147.384 50.9683 147.384 51.155C147.384 51.6683 147.606 51.925 148.049 51.925C148.632 51.925 149.484 51.4 150.604 50.35L150.954 50.63C150.371 51.4933 149.636 52.2867 148.749 53.01C147.862 53.71 146.801 54.06 145.564 54.06Z" fill="#273024"/>
</svg>
