<svg width="166" height="31" viewBox="0 0 166 31" fill="none" xmlns="http://www.w3.org/2000/svg">
<rect width="166" height="31" rx="15.5" fill="#BBC395"/>
<path d="M6.41881 20.0831C6.1717 20.8641 6.7071 21.6862 7.53079 21.8095L8.06619 21.8917C8.64277 21.9739 9.0958 22.426 9.21936 23.0015L9.30173 23.5359C9.42528 24.3579 10.249 24.8512 11.0727 24.6046L11.6081 24.4401C12.1846 24.2757 12.8024 24.4812 13.1319 24.9745L13.4614 25.4266C13.9556 26.0843 14.9028 26.2076 15.5206 25.6322L15.9324 25.2622C16.3855 24.8512 17.0032 24.769 17.5386 25.0567L18.0328 25.3033C18.7742 25.7144 19.6802 25.3855 19.9685 24.6046L20.1744 24.1113C20.3804 23.577 20.957 23.207 21.5335 23.2481L22.0689 23.2892C22.8926 23.3303 23.5928 22.6316 23.5104 21.8095L23.4692 21.2751C23.428 20.6997 23.7575 20.1242 24.3341 19.9187L24.8283 19.7132C25.5858 19.3948 25.8802 18.5372 25.5246 17.8489C25.501 17.8032 25.4709 17.7613 25.4383 17.7216L25.1667 17.3903C25.1333 17.3496 25.1025 17.3067 25.0789 17.2596C24.8365 16.7754 24.9278 16.1573 25.2813 15.7261L25.652 15.315C26.1874 14.6985 26.105 13.7531 25.4049 13.2598L24.9519 12.9721C24.4576 12.6433 24.2517 12.0267 24.4165 11.4512L24.5812 10.9169C24.8283 10.1359 24.2929 9.31383 23.4692 9.19052L22.9338 9.10831C22.3572 9.0261 21.9042 8.57396 21.7806 7.9985L21.6983 7.46414C21.5747 6.64206 20.751 6.14881 19.9273 6.39544L19.3919 6.55985C18.8154 6.72427 18.1976 6.51875 17.8681 6.0255L17.5386 5.57335C17.0444 4.91569 16.0972 4.79238 15.4794 5.36783L15.0676 5.73777C14.6145 6.14881 13.9968 6.23102 13.4614 5.94329L12.9671 5.69667C12.2258 5.28563 11.3198 5.61446 11.0315 6.39544L10.8256 6.88869C10.6196 7.42304 10.043 7.79298 9.46646 7.75187L9.01343 7.66966C8.18974 7.62856 7.48961 8.32733 7.57197 9.14941L7.61316 9.68377C7.65434 10.2592 7.32487 10.8347 6.74828 11.0402L6.25407 11.2457C5.47156 11.5746 5.18327 12.4788 5.59512 13.1776L5.88341 13.6298C6.1717 14.123 6.08933 14.7807 5.71867 15.2328L5.34801 15.6439C4.81261 16.2604 4.89498 17.2058 5.59512 17.6991L6.04815 17.9868C6.54236 18.3156 6.74828 18.9322 6.58355 19.5077L6.41881 20.0831ZM11.7174 14.6716C12.1108 14.2789 12.7491 14.2825 13.1381 14.6796L13.5409 15.0907C13.9286 15.4865 14.5642 15.4916 14.9582 15.102L17.903 12.1907C18.2939 11.8043 18.9235 11.8058 19.3125 12.194L19.788 12.6686C20.182 13.0619 20.179 13.7013 19.7812 14.0909L16.1384 17.658L14.9503 18.8437C14.5599 19.2333 13.9278 19.2333 13.5375 18.8437L12.3494 17.658L11.2464 16.5572C10.855 16.1665 10.855 15.5323 11.2464 15.1416L11.7174 14.6716Z" fill="white"/>
<path d="M35.885 16.574V15.547H38.329C38.8577 15.547 39.265 15.4127 39.551 15.144C39.837 14.8753 39.98 14.5113 39.98 14.052C39.98 13.6187 39.837 13.259 39.551 12.973C39.2737 12.687 38.8707 12.544 38.342 12.544H35.885V11.478H38.381C38.953 11.478 39.4513 11.5907 39.876 11.816C40.3007 12.0327 40.6257 12.3317 40.851 12.713C41.085 13.0943 41.202 13.532 41.202 14.026C41.202 14.5373 41.085 14.9837 40.851 15.365C40.6257 15.7463 40.3007 16.0453 39.876 16.262C39.4513 16.47 38.953 16.574 38.381 16.574H35.885ZM35.066 20.5V11.478H36.288V20.5H35.066ZM40.266 20.5L36.99 16.457L38.147 16.054L41.813 20.5H40.266ZM45.5256 20.63C44.9103 20.63 44.3556 20.4913 43.8616 20.214C43.3676 19.928 42.9776 19.5423 42.6916 19.057C42.4056 18.5717 42.2626 18.0213 42.2626 17.406C42.2626 16.7993 42.4013 16.2533 42.6786 15.768C42.9646 15.2827 43.346 14.9013 43.8226 14.624C44.308 14.338 44.8496 14.195 45.4476 14.195C46.0196 14.195 46.5223 14.325 46.9556 14.585C47.3976 14.845 47.74 15.2047 47.9826 15.664C48.234 16.1233 48.3596 16.6433 48.3596 17.224C48.3596 17.3107 48.3553 17.406 48.3466 17.51C48.338 17.6053 48.3206 17.718 48.2946 17.848H43.0816V16.873H47.6706L47.2416 17.25C47.2416 16.834 47.168 16.483 47.0206 16.197C46.8733 15.9023 46.6653 15.677 46.3966 15.521C46.128 15.3563 45.803 15.274 45.4216 15.274C45.023 15.274 44.672 15.3607 44.3686 15.534C44.0653 15.7073 43.8313 15.95 43.6666 16.262C43.502 16.574 43.4196 16.9423 43.4196 17.367C43.4196 17.8003 43.5063 18.1817 43.6796 18.511C43.853 18.8317 44.1 19.083 44.4206 19.265C44.7413 19.4383 45.1096 19.525 45.5256 19.525C45.8723 19.525 46.1886 19.4643 46.4746 19.343C46.7693 19.2217 47.0206 19.0397 47.2286 18.797L47.9826 19.564C47.688 19.9107 47.324 20.175 46.8906 20.357C46.466 20.539 46.011 20.63 45.5256 20.63ZM52.1963 23.217C51.5637 23.217 51.0003 23.1 50.5063 22.866C50.021 22.632 49.631 22.3027 49.3363 21.878L50.0903 21.111C50.3417 21.4317 50.6407 21.6743 50.9873 21.839C51.334 22.0123 51.7457 22.099 52.2223 22.099C52.855 22.099 53.3533 21.93 53.7173 21.592C54.09 21.2627 54.2763 20.8163 54.2763 20.253V18.719L54.4843 17.328L54.2763 15.95V14.325H55.4463V20.253C55.4463 20.8423 55.3077 21.358 55.0303 21.8C54.7617 22.242 54.3803 22.5887 53.8863 22.84C53.401 23.0913 52.8377 23.217 52.1963 23.217ZM52.1963 20.396C51.633 20.396 51.126 20.2617 50.6753 19.993C50.2333 19.7243 49.8823 19.356 49.6223 18.888C49.3623 18.4113 49.2323 17.8783 49.2323 17.289C49.2323 16.6997 49.3623 16.1753 49.6223 15.716C49.8823 15.248 50.2333 14.8797 50.6753 14.611C51.126 14.3337 51.633 14.195 52.1963 14.195C52.6817 14.195 53.1107 14.2903 53.4833 14.481C53.856 14.6717 54.1507 14.9403 54.3673 15.287C54.5927 15.625 54.714 16.0237 54.7313 16.483V18.121C54.7053 18.5717 54.5797 18.9703 54.3543 19.317C54.1377 19.655 53.843 19.9193 53.4703 20.11C53.0977 20.3007 52.673 20.396 52.1963 20.396ZM52.4303 19.291C52.8117 19.291 53.1453 19.2087 53.4313 19.044C53.726 18.8793 53.9513 18.6497 54.1073 18.355C54.2633 18.0517 54.3413 17.7007 54.3413 17.302C54.3413 16.9033 54.259 16.5567 54.0943 16.262C53.9383 15.9587 53.7173 15.7247 53.4313 15.56C53.1453 15.3867 52.8073 15.3 52.4173 15.3C52.0273 15.3 51.685 15.3867 51.3903 15.56C51.0957 15.7247 50.8617 15.9587 50.6883 16.262C50.5237 16.5567 50.4413 16.899 50.4413 17.289C50.4413 17.679 50.5237 18.0257 50.6883 18.329C50.8617 18.6323 51.0957 18.8707 51.3903 19.044C51.6937 19.2087 52.0403 19.291 52.4303 19.291ZM57.1767 20.5V14.325H58.3467V20.5H57.1767ZM57.7617 13.09C57.545 13.09 57.3673 13.0207 57.2287 12.882C57.09 12.7347 57.0207 12.5527 57.0207 12.336C57.0207 12.128 57.09 11.9547 57.2287 11.816C57.3673 11.6687 57.545 11.595 57.7617 11.595C57.9783 11.595 58.156 11.6687 58.2947 11.816C58.4333 11.9547 58.5027 12.128 58.5027 12.336C58.5027 12.5527 58.4333 12.7347 58.2947 12.882C58.156 13.0207 57.9783 13.09 57.7617 13.09ZM62.0339 20.63C61.6872 20.63 61.3579 20.5867 61.0459 20.5C60.7426 20.4047 60.4609 20.2747 60.2009 20.11C59.9409 19.9367 59.7156 19.733 59.5249 19.499L60.2789 18.745C60.5042 19.0223 60.7642 19.2303 61.0589 19.369C61.3536 19.499 61.6829 19.564 62.0469 19.564C62.4109 19.564 62.6926 19.5033 62.8919 19.382C63.0912 19.252 63.1909 19.0743 63.1909 18.849C63.1909 18.6237 63.1086 18.4503 62.9439 18.329C62.7879 18.199 62.5842 18.095 62.3329 18.017C62.0816 17.9303 61.8129 17.848 61.5269 17.77C61.2496 17.6833 60.9852 17.575 60.7339 17.445C60.4826 17.315 60.2746 17.1373 60.1099 16.912C59.9539 16.6867 59.8759 16.3877 59.8759 16.015C59.8759 15.6423 59.9669 15.3217 60.1489 15.053C60.3309 14.7757 60.5822 14.5633 60.9029 14.416C61.2322 14.2687 61.6266 14.195 62.0859 14.195C62.5712 14.195 63.0002 14.2817 63.3729 14.455C63.7542 14.6197 64.0662 14.871 64.3089 15.209L63.5549 15.963C63.3816 15.7377 63.1649 15.5643 62.9049 15.443C62.6536 15.3217 62.3676 15.261 62.0469 15.261C61.7089 15.261 61.4489 15.3217 61.2669 15.443C61.0936 15.5557 61.0069 15.716 61.0069 15.924C61.0069 16.132 61.0849 16.2923 61.2409 16.405C61.3969 16.5177 61.6006 16.613 61.8519 16.691C62.1119 16.769 62.3806 16.8513 62.6579 16.938C62.9352 17.016 63.1996 17.1243 63.4509 17.263C63.7022 17.4017 63.9059 17.588 64.0619 17.822C64.2266 18.056 64.3089 18.3637 64.3089 18.745C64.3089 19.3257 64.1009 19.785 63.6849 20.123C63.2776 20.461 62.7272 20.63 62.0339 20.63ZM66.5677 20.5V11.738H67.7377V20.5H66.5677ZM65.0467 15.391V14.325H69.2587V15.391H65.0467ZM70.4049 20.5V14.325H71.5749V20.5H70.4049ZM71.5749 16.977L71.1329 16.782C71.1329 15.9933 71.3149 15.365 71.6789 14.897C72.0429 14.429 72.5672 14.195 73.2519 14.195C73.5639 14.195 73.8455 14.2513 74.0969 14.364C74.3482 14.468 74.5822 14.6457 74.7989 14.897L74.0319 15.69C73.9019 15.5513 73.7589 15.4517 73.6029 15.391C73.4469 15.3303 73.2649 15.3 73.0569 15.3C72.6235 15.3 72.2682 15.4387 71.9909 15.716C71.7135 15.9933 71.5749 16.4137 71.5749 16.977ZM78.2405 20.63C77.6339 20.63 77.0879 20.487 76.6025 20.201C76.1172 19.915 75.7315 19.5293 75.4455 19.044C75.1595 18.55 75.0165 17.9997 75.0165 17.393C75.0165 16.795 75.1595 16.2577 75.4455 15.781C75.7315 15.2957 76.1172 14.91 76.6025 14.624C77.0879 14.338 77.6339 14.195 78.2405 14.195C78.8385 14.195 79.3802 14.338 79.8655 14.624C80.3595 14.9013 80.7495 15.2827 81.0355 15.768C81.3215 16.2533 81.4645 16.795 81.4645 17.393C81.4645 17.9997 81.3215 18.55 81.0355 19.044C80.7495 19.5293 80.3595 19.915 79.8655 20.201C79.3802 20.487 78.8385 20.63 78.2405 20.63ZM78.2405 19.499C78.6305 19.499 78.9772 19.408 79.2805 19.226C79.5839 19.044 79.8222 18.797 79.9955 18.485C80.1689 18.1643 80.2555 17.8003 80.2555 17.393C80.2555 16.9943 80.1645 16.639 79.9825 16.327C79.8092 16.015 79.5709 15.7723 79.2675 15.599C78.9729 15.417 78.6305 15.326 78.2405 15.326C77.8505 15.326 77.5039 15.417 77.2005 15.599C76.8972 15.7723 76.6589 16.015 76.4855 16.327C76.3122 16.639 76.2255 16.9943 76.2255 17.393C76.2255 17.8003 76.3122 18.1643 76.4855 18.485C76.6589 18.797 76.8972 19.044 77.2005 19.226C77.5039 19.408 77.8505 19.499 78.2405 19.499ZM88.7369 20.63C88.2689 20.63 87.8442 20.5347 87.4629 20.344C87.0902 20.1447 86.7912 19.8717 86.5659 19.525C86.3406 19.1783 86.2149 18.784 86.1889 18.342V16.483C86.2149 16.0323 86.3406 15.638 86.5659 15.3C86.7999 14.9533 87.1032 14.6847 87.4759 14.494C87.8572 14.2947 88.2776 14.195 88.7369 14.195C89.3002 14.195 89.8072 14.338 90.2579 14.624C90.7172 14.91 91.0769 15.2957 91.3369 15.781C91.5969 16.2663 91.7269 16.8123 91.7269 17.419C91.7269 18.0257 91.5969 18.5717 91.3369 19.057C91.0769 19.5423 90.7172 19.928 90.2579 20.214C89.8072 20.4913 89.3002 20.63 88.7369 20.63ZM88.5419 19.525C88.9319 19.525 89.2742 19.434 89.5689 19.252C89.8636 19.07 90.0976 18.823 90.2709 18.511C90.4442 18.1903 90.5309 17.822 90.5309 17.406C90.5309 16.9987 90.4442 16.6347 90.2709 16.314C90.0976 15.9933 89.8636 15.7463 89.5689 15.573C89.2742 15.391 88.9362 15.3 88.5549 15.3C88.1649 15.3 87.8226 15.391 87.5279 15.573C87.2332 15.7463 87.0036 15.9933 86.8389 16.314C86.6742 16.6347 86.5919 17.003 86.5919 17.419C86.5919 17.8263 86.6699 18.1903 86.8259 18.511C86.9906 18.823 87.2202 19.07 87.5149 19.252C87.8182 19.434 88.1606 19.525 88.5419 19.525ZM85.4869 23.087V14.325H86.6569V15.95L86.4359 17.445L86.6569 18.953V23.087H85.4869ZM93.0533 20.5V14.325H94.2233V20.5H93.0533ZM94.2233 16.977L93.7813 16.782C93.7813 15.9933 93.9633 15.365 94.3273 14.897C94.6913 14.429 95.2156 14.195 95.9003 14.195C96.2123 14.195 96.494 14.2513 96.7453 14.364C96.9966 14.468 97.2306 14.6457 97.4473 14.897L96.6803 15.69C96.5503 15.5513 96.4073 15.4517 96.2513 15.391C96.0953 15.3303 95.9133 15.3 95.7053 15.3C95.272 15.3 94.9166 15.4387 94.6393 15.716C94.362 15.9933 94.2233 16.4137 94.2233 16.977ZM100.889 20.63C100.282 20.63 99.7363 20.487 99.251 20.201C98.7656 19.915 98.38 19.5293 98.094 19.044C97.808 18.55 97.665 17.9997 97.665 17.393C97.665 16.795 97.808 16.2577 98.094 15.781C98.38 15.2957 98.7656 14.91 99.251 14.624C99.7363 14.338 100.282 14.195 100.889 14.195C101.487 14.195 102.029 14.338 102.514 14.624C103.008 14.9013 103.398 15.2827 103.684 15.768C103.97 16.2533 104.113 16.795 104.113 17.393C104.113 17.9997 103.97 18.55 103.684 19.044C103.398 19.5293 103.008 19.915 102.514 20.201C102.029 20.487 101.487 20.63 100.889 20.63ZM100.889 19.499C101.279 19.499 101.626 19.408 101.929 19.226C102.232 19.044 102.471 18.797 102.644 18.485C102.817 18.1643 102.904 17.8003 102.904 17.393C102.904 16.9943 102.813 16.639 102.631 16.327C102.458 16.015 102.219 15.7723 101.916 15.599C101.621 15.417 101.279 15.326 100.889 15.326C100.499 15.326 100.152 15.417 99.849 15.599C99.5456 15.7723 99.3073 16.015 99.134 16.327C98.9606 16.639 98.874 16.9943 98.874 17.393C98.874 17.8003 98.9606 18.1643 99.134 18.485C99.3073 18.797 99.5456 19.044 99.849 19.226C100.152 19.408 100.499 19.499 100.889 19.499ZM106.125 20.5V13.207C106.125 12.7997 106.211 12.44 106.385 12.128C106.567 11.8073 106.818 11.556 107.139 11.374C107.459 11.1833 107.828 11.088 108.244 11.088C108.564 11.088 108.846 11.1443 109.089 11.257C109.331 11.361 109.557 11.5083 109.765 11.699L108.998 12.466C108.885 12.3707 108.768 12.3013 108.647 12.258C108.525 12.206 108.391 12.18 108.244 12.18C107.94 12.18 107.706 12.2753 107.542 12.466C107.377 12.648 107.295 12.895 107.295 13.207V20.5H106.125ZM104.604 15.391V14.325H110.467V15.391H104.604ZM109.791 20.5V14.325H110.974V20.5H109.791ZM110.376 13.675C110.168 13.675 109.994 13.6057 109.856 13.467C109.717 13.3197 109.648 13.1377 109.648 12.921C109.648 12.713 109.717 12.5397 109.856 12.401C109.994 12.2537 110.168 12.18 110.376 12.18C110.601 12.18 110.779 12.2537 110.909 12.401C111.047 12.5397 111.117 12.713 111.117 12.921C111.117 13.1377 111.047 13.3197 110.909 13.467C110.779 13.6057 110.601 13.675 110.376 13.675ZM114.656 20.63C114.309 20.63 113.98 20.5867 113.668 20.5C113.365 20.4047 113.083 20.2747 112.823 20.11C112.563 19.9367 112.338 19.733 112.147 19.499L112.901 18.745C113.126 19.0223 113.386 19.2303 113.681 19.369C113.976 19.499 114.305 19.564 114.669 19.564C115.033 19.564 115.315 19.5033 115.514 19.382C115.713 19.252 115.813 19.0743 115.813 18.849C115.813 18.6237 115.731 18.4503 115.566 18.329C115.41 18.199 115.206 18.095 114.955 18.017C114.704 17.9303 114.435 17.848 114.149 17.77C113.872 17.6833 113.607 17.575 113.356 17.445C113.105 17.315 112.897 17.1373 112.732 16.912C112.576 16.6867 112.498 16.3877 112.498 16.015C112.498 15.6423 112.589 15.3217 112.771 15.053C112.953 14.7757 113.204 14.5633 113.525 14.416C113.854 14.2687 114.249 14.195 114.708 14.195C115.193 14.195 115.622 14.2817 115.995 14.455C116.376 14.6197 116.688 14.871 116.931 15.209L116.177 15.963C116.004 15.7377 115.787 15.5643 115.527 15.443C115.276 15.3217 114.99 15.261 114.669 15.261C114.331 15.261 114.071 15.3217 113.889 15.443C113.716 15.5557 113.629 15.716 113.629 15.924C113.629 16.132 113.707 16.2923 113.863 16.405C114.019 16.5177 114.223 16.613 114.474 16.691C114.734 16.769 115.003 16.8513 115.28 16.938C115.557 17.016 115.822 17.1243 116.073 17.263C116.324 17.4017 116.528 17.588 116.684 17.822C116.849 18.056 116.931 18.3637 116.931 18.745C116.931 19.3257 116.723 19.785 116.307 20.123C115.9 20.461 115.349 20.63 114.656 20.63ZM120.204 20.63C119.857 20.63 119.528 20.5867 119.216 20.5C118.912 20.4047 118.631 20.2747 118.371 20.11C118.111 19.9367 117.885 19.733 117.695 19.499L118.449 18.745C118.674 19.0223 118.934 19.2303 119.229 19.369C119.523 19.499 119.853 19.564 120.217 19.564C120.581 19.564 120.862 19.5033 121.062 19.382C121.261 19.252 121.361 19.0743 121.361 18.849C121.361 18.6237 121.278 18.4503 121.114 18.329C120.958 18.199 120.754 18.095 120.503 18.017C120.251 17.9303 119.983 17.848 119.697 17.77C119.419 17.6833 119.155 17.575 118.904 17.445C118.652 17.315 118.444 17.1373 118.28 16.912C118.124 16.6867 118.046 16.3877 118.046 16.015C118.046 15.6423 118.137 15.3217 118.319 15.053C118.501 14.7757 118.752 14.5633 119.073 14.416C119.402 14.2687 119.796 14.195 120.256 14.195C120.741 14.195 121.17 14.2817 121.543 14.455C121.924 14.6197 122.236 14.871 122.479 15.209L121.725 15.963C121.551 15.7377 121.335 15.5643 121.075 15.443C120.823 15.3217 120.537 15.261 120.217 15.261C119.879 15.261 119.619 15.3217 119.437 15.443C119.263 15.5557 119.177 15.716 119.177 15.924C119.177 16.132 119.255 16.2923 119.411 16.405C119.567 16.5177 119.77 16.613 120.022 16.691C120.282 16.769 120.55 16.8513 120.828 16.938C121.105 17.016 121.369 17.1243 121.621 17.263C121.872 17.4017 122.076 17.588 122.232 17.822C122.396 18.056 122.479 18.3637 122.479 18.745C122.479 19.3257 122.271 19.785 121.855 20.123C121.447 20.461 120.897 20.63 120.204 20.63ZM123.802 20.5V14.325H124.972V20.5H123.802ZM124.387 13.09C124.17 13.09 123.992 13.0207 123.854 12.882C123.715 12.7347 123.646 12.5527 123.646 12.336C123.646 12.128 123.715 11.9547 123.854 11.816C123.992 11.6687 124.17 11.595 124.387 11.595C124.603 11.595 124.781 11.6687 124.92 11.816C125.058 11.9547 125.128 12.128 125.128 12.336C125.128 12.5527 125.058 12.7347 124.92 12.882C124.781 13.0207 124.603 13.09 124.387 13.09ZM129.517 20.63C128.91 20.63 128.364 20.487 127.879 20.201C127.394 19.915 127.008 19.5293 126.722 19.044C126.436 18.55 126.293 17.9997 126.293 17.393C126.293 16.795 126.436 16.2577 126.722 15.781C127.008 15.2957 127.394 14.91 127.879 14.624C128.364 14.338 128.91 14.195 129.517 14.195C130.115 14.195 130.657 14.338 131.142 14.624C131.636 14.9013 132.026 15.2827 132.312 15.768C132.598 16.2533 132.741 16.795 132.741 17.393C132.741 17.9997 132.598 18.55 132.312 19.044C132.026 19.5293 131.636 19.915 131.142 20.201C130.657 20.487 130.115 20.63 129.517 20.63ZM129.517 19.499C129.907 19.499 130.254 19.408 130.557 19.226C130.86 19.044 131.099 18.797 131.272 18.485C131.445 18.1643 131.532 17.8003 131.532 17.393C131.532 16.9943 131.441 16.639 131.259 16.327C131.086 16.015 130.847 15.7723 130.544 15.599C130.249 15.417 129.907 15.326 129.517 15.326C129.127 15.326 128.78 15.417 128.477 15.599C128.174 15.7723 127.935 16.015 127.762 16.327C127.589 16.639 127.502 16.9943 127.502 17.393C127.502 17.8003 127.589 18.1643 127.762 18.485C127.935 18.797 128.174 19.044 128.477 19.226C128.78 19.408 129.127 19.499 129.517 19.499ZM138.427 20.5V16.899C138.427 16.431 138.28 16.0453 137.985 15.742C137.691 15.4387 137.309 15.287 136.841 15.287C136.529 15.287 136.252 15.3563 136.009 15.495C135.767 15.6337 135.576 15.8243 135.437 16.067C135.299 16.3097 135.229 16.587 135.229 16.899L134.748 16.626C134.748 16.158 134.852 15.742 135.06 15.378C135.268 15.014 135.559 14.728 135.931 14.52C136.304 14.3033 136.724 14.195 137.192 14.195C137.66 14.195 138.072 14.312 138.427 14.546C138.791 14.78 139.077 15.0877 139.285 15.469C139.493 15.8417 139.597 16.2403 139.597 16.665V20.5H138.427ZM134.059 20.5V14.325H135.229V20.5H134.059ZM143.807 20.63C143.244 20.63 142.733 20.4913 142.273 20.214C141.814 19.928 141.45 19.5423 141.181 19.057C140.921 18.5717 140.791 18.0257 140.791 17.419C140.791 16.8123 140.921 16.2663 141.181 15.781C141.45 15.2957 141.81 14.91 142.26 14.624C142.72 14.338 143.235 14.195 143.807 14.195C144.275 14.195 144.691 14.2947 145.055 14.494C145.428 14.6847 145.727 14.9533 145.952 15.3C146.178 15.638 146.303 16.0323 146.329 16.483V18.342C146.303 18.784 146.178 19.1783 145.952 19.525C145.736 19.8717 145.441 20.1447 145.068 20.344C144.704 20.5347 144.284 20.63 143.807 20.63ZM144.002 19.525C144.583 19.525 145.051 19.33 145.406 18.94C145.762 18.5413 145.939 18.0343 145.939 17.419C145.939 16.9943 145.857 16.626 145.692 16.314C145.536 15.9933 145.311 15.7463 145.016 15.573C144.722 15.391 144.379 15.3 143.989 15.3C143.599 15.3 143.253 15.391 142.949 15.573C142.655 15.755 142.421 16.0063 142.247 16.327C142.083 16.639 142 16.9987 142 17.406C142 17.822 142.083 18.1903 142.247 18.511C142.421 18.823 142.659 19.07 142.962 19.252C143.266 19.434 143.612 19.525 144.002 19.525ZM145.861 20.5V18.836L146.082 17.328L145.861 15.833V14.325H147.044V20.5H145.861ZM148.748 20.5V11.218H149.918V20.5H148.748Z" fill="white"/>
</svg>
