<svg width="166" height="31" viewBox="0 0 166 31" fill="none" xmlns="http://www.w3.org/2000/svg">
<rect width="166" height="31" rx="15.5" fill="#BBC395"/>
<path d="M6.41881 20.0831C6.1717 20.8641 6.7071 21.6862 7.53079 21.8095L8.06619 21.8917C8.64277 21.9739 9.0958 22.426 9.21936 23.0015L9.30173 23.5359C9.42528 24.3579 10.249 24.8512 11.0727 24.6046L11.6081 24.4401C12.1846 24.2757 12.8024 24.4812 13.1319 24.9745L13.4614 25.4266C13.9556 26.0843 14.9028 26.2076 15.5206 25.6322L15.9324 25.2622C16.3855 24.8512 17.0032 24.769 17.5386 25.0567L18.0328 25.3033C18.7742 25.7144 19.6802 25.3855 19.9685 24.6046L20.1744 24.1113C20.3804 23.577 20.957 23.207 21.5335 23.2481L22.0689 23.2892C22.8926 23.3303 23.5928 22.6316 23.5104 21.8095L23.4692 21.2751C23.428 20.6997 23.7575 20.1242 24.3341 19.9187L24.8283 19.7132C25.5858 19.3948 25.8802 18.5372 25.5246 17.8489C25.501 17.8032 25.4709 17.7613 25.4383 17.7216L25.1667 17.3903C25.1333 17.3496 25.1025 17.3067 25.0789 17.2596C24.8365 16.7754 24.9278 16.1573 25.2813 15.7261L25.652 15.315C26.1874 14.6985 26.105 13.7531 25.4049 13.2598L24.9519 12.9721C24.4576 12.6433 24.2517 12.0267 24.4165 11.4512L24.5812 10.9169C24.8283 10.1359 24.2929 9.31383 23.4692 9.19052L22.9338 9.10831C22.3572 9.0261 21.9042 8.57396 21.7806 7.9985L21.6983 7.46414C21.5747 6.64206 20.751 6.14881 19.9273 6.39544L19.3919 6.55985C18.8154 6.72427 18.1976 6.51875 17.8681 6.0255L17.5386 5.57335C17.0444 4.91569 16.0972 4.79238 15.4794 5.36783L15.0676 5.73777C14.6145 6.14881 13.9968 6.23102 13.4614 5.94329L12.9671 5.69667C12.2258 5.28563 11.3198 5.61446 11.0315 6.39544L10.8256 6.88869C10.6196 7.42304 10.043 7.79298 9.46646 7.75187L9.01343 7.66966C8.18974 7.62856 7.48961 8.32733 7.57197 9.14941L7.61316 9.68377C7.65434 10.2592 7.32487 10.8347 6.74828 11.0402L6.25407 11.2457C5.47156 11.5746 5.18327 12.4788 5.59512 13.1776L5.88341 13.6298C6.1717 14.123 6.08933 14.7807 5.71867 15.2328L5.34801 15.6439C4.81261 16.2604 4.89498 17.2058 5.59512 17.6991L6.04815 17.9868C6.54236 18.3156 6.74828 18.9322 6.58355 19.5077L6.41881 20.0831ZM11.7174 14.6716C12.1108 14.2789 12.7491 14.2825 13.1381 14.6796L13.5409 15.0907C13.9286 15.4865 14.5642 15.4916 14.9582 15.102L17.903 12.1907C18.2939 11.8043 18.9235 11.8058 19.3125 12.194L19.788 12.6686C20.182 13.0619 20.179 13.7013 19.7812 14.0909L16.1384 17.658L14.9503 18.8437C14.5599 19.2333 13.9278 19.2333 13.5375 18.8437L12.3494 17.658L11.2464 16.5572C10.855 16.1665 10.855 15.5323 11.2464 15.1416L11.7174 14.6716Z" fill="white"/>
<path d="M35.885 16.99V15.924H38.342C38.68 15.924 38.979 15.8547 39.239 15.716C39.5077 15.5773 39.7157 15.3823 39.863 15.131C40.019 14.8797 40.097 14.5807 40.097 14.234C40.097 13.8873 40.019 13.5883 39.863 13.337C39.7157 13.0857 39.5077 12.8907 39.239 12.752C38.979 12.6133 38.68 12.544 38.342 12.544H35.885V11.478H38.42C38.9747 11.478 39.4687 11.5907 39.902 11.816C40.344 12.0413 40.6907 12.362 40.942 12.778C41.202 13.1853 41.332 13.6707 41.332 14.234C41.332 14.7887 41.202 15.274 40.942 15.69C40.6907 16.0973 40.344 16.418 39.902 16.652C39.4687 16.8773 38.9747 16.99 38.42 16.99H35.885ZM35.066 20.5V11.478H36.288V20.5H35.066ZM42.7418 20.5V14.325H43.9118V20.5H42.7418ZM43.9118 16.977L43.4698 16.782C43.4698 15.9933 43.6518 15.365 44.0158 14.897C44.3798 14.429 44.9041 14.195 45.5888 14.195C45.9008 14.195 46.1825 14.2513 46.4338 14.364C46.6851 14.468 46.9191 14.6457 47.1358 14.897L46.3688 15.69C46.2388 15.5513 46.0958 15.4517 45.9398 15.391C45.7838 15.3303 45.6018 15.3 45.3938 15.3C44.9605 15.3 44.6051 15.4387 44.3278 15.716C44.0505 15.9933 43.9118 16.4137 43.9118 16.977ZM50.5774 20.63C49.9708 20.63 49.4248 20.487 48.9394 20.201C48.4541 19.915 48.0684 19.5293 47.7824 19.044C47.4964 18.55 47.3534 17.9997 47.3534 17.393C47.3534 16.795 47.4964 16.2577 47.7824 15.781C48.0684 15.2957 48.4541 14.91 48.9394 14.624C49.4248 14.338 49.9708 14.195 50.5774 14.195C51.1754 14.195 51.7171 14.338 52.2024 14.624C52.6964 14.9013 53.0864 15.2827 53.3724 15.768C53.6584 16.2533 53.8014 16.795 53.8014 17.393C53.8014 17.9997 53.6584 18.55 53.3724 19.044C53.0864 19.5293 52.6964 19.915 52.2024 20.201C51.7171 20.487 51.1754 20.63 50.5774 20.63ZM50.5774 19.499C50.9674 19.499 51.3141 19.408 51.6174 19.226C51.9208 19.044 52.1591 18.797 52.3324 18.485C52.5058 18.1643 52.5924 17.8003 52.5924 17.393C52.5924 16.9943 52.5014 16.639 52.3194 16.327C52.1461 16.015 51.9078 15.7723 51.6044 15.599C51.3098 15.417 50.9674 15.326 50.5774 15.326C50.1874 15.326 49.8408 15.417 49.5374 15.599C49.2341 15.7723 48.9958 16.015 48.8224 16.327C48.6491 16.639 48.5624 16.9943 48.5624 17.393C48.5624 17.8003 48.6491 18.1643 48.8224 18.485C48.9958 18.797 49.2341 19.044 49.5374 19.226C49.8408 19.408 50.1874 19.499 50.5774 19.499ZM55.8133 20.5V13.402C55.8133 12.9427 55.913 12.544 56.1123 12.206C56.3116 11.8593 56.5846 11.5863 56.9313 11.387C57.2866 11.1877 57.6983 11.088 58.1663 11.088C58.5216 11.088 58.8293 11.1487 59.0893 11.27C59.3493 11.3913 59.5876 11.569 59.8043 11.803L59.0373 12.557C58.9246 12.4357 58.799 12.3447 58.6603 12.284C58.5216 12.2147 58.3526 12.18 58.1533 12.18C57.7806 12.18 57.4903 12.2883 57.2823 12.505C57.083 12.7217 56.9833 13.0207 56.9833 13.402V20.5H55.8133ZM54.2923 15.391V14.325H58.9463V15.391H54.2923ZM62.6262 20.63C62.0109 20.63 61.4562 20.4913 60.9622 20.214C60.4682 19.928 60.0782 19.5423 59.7922 19.057C59.5062 18.5717 59.3632 18.0213 59.3632 17.406C59.3632 16.7993 59.5019 16.2533 59.7792 15.768C60.0652 15.2827 60.4465 14.9013 60.9232 14.624C61.4085 14.338 61.9502 14.195 62.5482 14.195C63.1202 14.195 63.6229 14.325 64.0562 14.585C64.4982 14.845 64.8405 15.2047 65.0832 15.664C65.3345 16.1233 65.4602 16.6433 65.4602 17.224C65.4602 17.3107 65.4559 17.406 65.4472 17.51C65.4385 17.6053 65.4212 17.718 65.3952 17.848H60.1822V16.873H64.7712L64.3422 17.25C64.3422 16.834 64.2685 16.483 64.1212 16.197C63.9739 15.9023 63.7659 15.677 63.4972 15.521C63.2285 15.3563 62.9035 15.274 62.5222 15.274C62.1235 15.274 61.7725 15.3607 61.4692 15.534C61.1659 15.7073 60.9319 15.95 60.7672 16.262C60.6025 16.574 60.5202 16.9423 60.5202 17.367C60.5202 17.8003 60.6069 18.1817 60.7802 18.511C60.9535 18.8317 61.2005 19.083 61.5212 19.265C61.8419 19.4383 62.2102 19.525 62.6262 19.525C62.9729 19.525 63.2892 19.4643 63.5752 19.343C63.8699 19.2217 64.1212 19.0397 64.3292 18.797L65.0832 19.564C64.7885 19.9107 64.4245 20.175 63.9912 20.357C63.5665 20.539 63.1115 20.63 62.6262 20.63ZM68.6989 20.63C68.3523 20.63 68.0229 20.5867 67.7109 20.5C67.4076 20.4047 67.1259 20.2747 66.8659 20.11C66.6059 19.9367 66.3806 19.733 66.1899 19.499L66.9439 18.745C67.1693 19.0223 67.4293 19.2303 67.7239 19.369C68.0186 19.499 68.3479 19.564 68.7119 19.564C69.0759 19.564 69.3576 19.5033 69.5569 19.382C69.7563 19.252 69.8559 19.0743 69.8559 18.849C69.8559 18.6237 69.7736 18.4503 69.6089 18.329C69.4529 18.199 69.2493 18.095 68.9979 18.017C68.7466 17.9303 68.4779 17.848 68.1919 17.77C67.9146 17.6833 67.6503 17.575 67.3989 17.445C67.1476 17.315 66.9396 17.1373 66.7749 16.912C66.6189 16.6867 66.5409 16.3877 66.5409 16.015C66.5409 15.6423 66.6319 15.3217 66.8139 15.053C66.9959 14.7757 67.2473 14.5633 67.5679 14.416C67.8973 14.2687 68.2916 14.195 68.7509 14.195C69.2363 14.195 69.6653 14.2817 70.0379 14.455C70.4193 14.6197 70.7313 14.871 70.9739 15.209L70.2199 15.963C70.0466 15.7377 69.8299 15.5643 69.5699 15.443C69.3186 15.3217 69.0326 15.261 68.7119 15.261C68.3739 15.261 68.1139 15.3217 67.9319 15.443C67.7586 15.5557 67.6719 15.716 67.6719 15.924C67.6719 16.132 67.7499 16.2923 67.9059 16.405C68.0619 16.5177 68.2656 16.613 68.5169 16.691C68.7769 16.769 69.0456 16.8513 69.3229 16.938C69.6003 17.016 69.8646 17.1243 70.1159 17.263C70.3673 17.4017 70.5709 17.588 70.7269 17.822C70.8916 18.056 70.9739 18.3637 70.9739 18.745C70.9739 19.3257 70.7659 19.785 70.3499 20.123C69.9426 20.461 69.3923 20.63 68.6989 20.63ZM74.2468 20.63C73.9001 20.63 73.5708 20.5867 73.2588 20.5C72.9554 20.4047 72.6738 20.2747 72.4138 20.11C72.1538 19.9367 71.9284 19.733 71.7378 19.499L72.4918 18.745C72.7171 19.0223 72.9771 19.2303 73.2718 19.369C73.5664 19.499 73.8958 19.564 74.2598 19.564C74.6238 19.564 74.9054 19.5033 75.1048 19.382C75.3041 19.252 75.4038 19.0743 75.4038 18.849C75.4038 18.6237 75.3214 18.4503 75.1568 18.329C75.0008 18.199 74.7971 18.095 74.5458 18.017C74.2944 17.9303 74.0258 17.848 73.7398 17.77C73.4624 17.6833 73.1981 17.575 72.9468 17.445C72.6954 17.315 72.4874 17.1373 72.3228 16.912C72.1668 16.6867 72.0888 16.3877 72.0888 16.015C72.0888 15.6423 72.1798 15.3217 72.3618 15.053C72.5438 14.7757 72.7951 14.5633 73.1158 14.416C73.4451 14.2687 73.8394 14.195 74.2988 14.195C74.7841 14.195 75.2131 14.2817 75.5858 14.455C75.9671 14.6197 76.2791 14.871 76.5218 15.209L75.7678 15.963C75.5944 15.7377 75.3778 15.5643 75.1178 15.443C74.8664 15.3217 74.5804 15.261 74.2598 15.261C73.9218 15.261 73.6618 15.3217 73.4798 15.443C73.3064 15.5557 73.2198 15.716 73.2198 15.924C73.2198 16.132 73.2978 16.2923 73.4538 16.405C73.6098 16.5177 73.8134 16.613 74.0648 16.691C74.3248 16.769 74.5934 16.8513 74.8708 16.938C75.1481 17.016 75.4124 17.1243 75.6638 17.263C75.9151 17.4017 76.1188 17.588 76.2748 17.822C76.4394 18.056 76.5218 18.3637 76.5218 18.745C76.5218 19.3257 76.3138 19.785 75.8978 20.123C75.4904 20.461 74.9401 20.63 74.2468 20.63ZM77.8446 20.5V14.325H79.0146V20.5H77.8446ZM78.4296 13.09C78.213 13.09 78.0353 13.0207 77.8966 12.882C77.758 12.7347 77.6886 12.5527 77.6886 12.336C77.6886 12.128 77.758 11.9547 77.8966 11.816C78.0353 11.6687 78.213 11.595 78.4296 11.595C78.6463 11.595 78.824 11.6687 78.9626 11.816C79.1013 11.9547 79.1706 12.128 79.1706 12.336C79.1706 12.5527 79.1013 12.7347 78.9626 12.882C78.824 13.0207 78.6463 13.09 78.4296 13.09ZM83.5599 20.63C82.9532 20.63 82.4072 20.487 81.9219 20.201C81.4365 19.915 81.0509 19.5293 80.7649 19.044C80.4789 18.55 80.3359 17.9997 80.3359 17.393C80.3359 16.795 80.4789 16.2577 80.7649 15.781C81.0509 15.2957 81.4365 14.91 81.9219 14.624C82.4072 14.338 82.9532 14.195 83.5599 14.195C84.1579 14.195 84.6995 14.338 85.1849 14.624C85.6789 14.9013 86.0689 15.2827 86.3549 15.768C86.6409 16.2533 86.7839 16.795 86.7839 17.393C86.7839 17.9997 86.6409 18.55 86.3549 19.044C86.0689 19.5293 85.6789 19.915 85.1849 20.201C84.6995 20.487 84.1579 20.63 83.5599 20.63ZM83.5599 19.499C83.9499 19.499 84.2965 19.408 84.5999 19.226C84.9032 19.044 85.1415 18.797 85.3149 18.485C85.4882 18.1643 85.5749 17.8003 85.5749 17.393C85.5749 16.9943 85.4839 16.639 85.3019 16.327C85.1285 16.015 84.8902 15.7723 84.5869 15.599C84.2922 15.417 83.9499 15.326 83.5599 15.326C83.1699 15.326 82.8232 15.417 82.5199 15.599C82.2165 15.7723 81.9782 16.015 81.8049 16.327C81.6315 16.639 81.5449 16.9943 81.5449 17.393C81.5449 17.8003 81.6315 18.1643 81.8049 18.485C81.9782 18.797 82.2165 19.044 82.5199 19.226C82.8232 19.408 83.1699 19.499 83.5599 19.499ZM92.4701 20.5V16.899C92.4701 16.431 92.3228 16.0453 92.0281 15.742C91.7335 15.4387 91.3521 15.287 90.8841 15.287C90.5721 15.287 90.2948 15.3563 90.0521 15.495C89.8095 15.6337 89.6188 15.8243 89.4801 16.067C89.3415 16.3097 89.2721 16.587 89.2721 16.899L88.7911 16.626C88.7911 16.158 88.8951 15.742 89.1031 15.378C89.3111 15.014 89.6015 14.728 89.9741 14.52C90.3468 14.3033 90.7671 14.195 91.2351 14.195C91.7031 14.195 92.1148 14.312 92.4701 14.546C92.8341 14.78 93.1201 15.0877 93.3281 15.469C93.5361 15.8417 93.6401 16.2403 93.6401 16.665V20.5H92.4701ZM88.1021 20.5V14.325H89.2721V20.5H88.1021ZM97.8502 20.63C97.2869 20.63 96.7755 20.4913 96.3162 20.214C95.8569 19.928 95.4929 19.5423 95.2242 19.057C94.9642 18.5717 94.8342 18.0257 94.8342 17.419C94.8342 16.8123 94.9642 16.2663 95.2242 15.781C95.4929 15.2957 95.8525 14.91 96.3032 14.624C96.7625 14.338 97.2782 14.195 97.8502 14.195C98.3182 14.195 98.7342 14.2947 99.0982 14.494C99.4709 14.6847 99.7699 14.9533 99.9952 15.3C100.221 15.638 100.346 16.0323 100.372 16.483V18.342C100.346 18.784 100.221 19.1783 99.9952 19.525C99.7785 19.8717 99.4839 20.1447 99.1112 20.344C98.7472 20.5347 98.3269 20.63 97.8502 20.63ZM98.0452 19.525C98.6259 19.525 99.0939 19.33 99.4492 18.94C99.8045 18.5413 99.9822 18.0343 99.9822 17.419C99.9822 16.9943 99.8999 16.626 99.7352 16.314C99.5792 15.9933 99.3539 15.7463 99.0592 15.573C98.7645 15.391 98.4222 15.3 98.0322 15.3C97.6422 15.3 97.2955 15.391 96.9922 15.573C96.6975 15.755 96.4635 16.0063 96.2902 16.327C96.1255 16.639 96.0432 16.9987 96.0432 17.406C96.0432 17.822 96.1255 18.1903 96.2902 18.511C96.4635 18.823 96.7019 19.07 97.0052 19.252C97.3085 19.434 97.6552 19.525 98.0452 19.525ZM99.9042 20.5V18.836L100.125 17.328L99.9042 15.833V14.325H101.087V20.5H99.9042ZM102.791 20.5V11.218H103.961V20.5H102.791ZM108.585 20.5V11.478H109.807V20.5H108.585ZM109.417 20.5V19.382H114.253V20.5H109.417ZM115.562 20.5V14.325H116.732V20.5H115.562ZM116.147 13.09C115.931 13.09 115.753 13.0207 115.614 12.882C115.476 12.7347 115.406 12.5527 115.406 12.336C115.406 12.128 115.476 11.9547 115.614 11.816C115.753 11.6687 115.931 11.595 116.147 11.595C116.364 11.595 116.542 11.6687 116.68 11.816C116.819 11.9547 116.888 12.128 116.888 12.336C116.888 12.5527 116.819 12.7347 116.68 12.882C116.542 13.0207 116.364 13.09 116.147 13.09ZM121.278 20.63C120.671 20.63 120.121 20.487 119.627 20.201C119.141 19.915 118.756 19.5293 118.47 19.044C118.192 18.55 118.054 18.004 118.054 17.406C118.054 16.7993 118.192 16.2533 118.47 15.768C118.756 15.2827 119.141 14.9013 119.627 14.624C120.121 14.338 120.671 14.195 121.278 14.195C121.754 14.195 122.196 14.286 122.604 14.468C123.011 14.6413 123.362 14.897 123.657 15.235L122.877 16.015C122.686 15.7897 122.452 15.6207 122.175 15.508C121.906 15.3867 121.607 15.326 121.278 15.326C120.888 15.326 120.541 15.417 120.238 15.599C119.934 15.7723 119.696 16.015 119.523 16.327C119.349 16.639 119.263 16.9987 119.263 17.406C119.263 17.8133 119.349 18.173 119.523 18.485C119.696 18.797 119.934 19.044 120.238 19.226C120.541 19.408 120.888 19.499 121.278 19.499C121.607 19.499 121.906 19.4427 122.175 19.33C122.452 19.2087 122.69 19.0353 122.89 18.81L123.657 19.59C123.371 19.9193 123.02 20.175 122.604 20.357C122.196 20.539 121.754 20.63 121.278 20.63ZM127.55 20.63C126.935 20.63 126.38 20.4913 125.886 20.214C125.392 19.928 125.002 19.5423 124.716 19.057C124.43 18.5717 124.287 18.0213 124.287 17.406C124.287 16.7993 124.426 16.2533 124.703 15.768C124.989 15.2827 125.37 14.9013 125.847 14.624C126.332 14.338 126.874 14.195 127.472 14.195C128.044 14.195 128.547 14.325 128.98 14.585C129.422 14.845 129.764 15.2047 130.007 15.664C130.258 16.1233 130.384 16.6433 130.384 17.224C130.384 17.3107 130.38 17.406 130.371 17.51C130.362 17.6053 130.345 17.718 130.319 17.848H125.106V16.873H129.695L129.266 17.25C129.266 16.834 129.192 16.483 129.045 16.197C128.898 15.9023 128.69 15.677 128.421 15.521C128.152 15.3563 127.827 15.274 127.446 15.274C127.047 15.274 126.696 15.3607 126.393 15.534C126.09 15.7073 125.856 15.95 125.691 16.262C125.526 16.574 125.444 16.9423 125.444 17.367C125.444 17.8003 125.531 18.1817 125.704 18.511C125.877 18.8317 126.124 19.083 126.445 19.265C126.766 19.4383 127.134 19.525 127.55 19.525C127.897 19.525 128.213 19.4643 128.499 19.343C128.794 19.2217 129.045 19.0397 129.253 18.797L130.007 19.564C129.712 19.9107 129.348 20.175 128.915 20.357C128.49 20.539 128.035 20.63 127.55 20.63ZM136.028 20.5V16.899C136.028 16.431 135.88 16.0453 135.586 15.742C135.291 15.4387 134.91 15.287 134.442 15.287C134.13 15.287 133.852 15.3563 133.61 15.495C133.367 15.6337 133.176 15.8243 133.038 16.067C132.899 16.3097 132.83 16.587 132.83 16.899L132.349 16.626C132.349 16.158 132.453 15.742 132.661 15.378C132.869 15.014 133.159 14.728 133.532 14.52C133.904 14.3033 134.325 14.195 134.793 14.195C135.261 14.195 135.672 14.312 136.028 14.546C136.392 14.78 136.678 15.0877 136.886 15.469C137.094 15.8417 137.198 16.2403 137.198 16.665V20.5H136.028ZM131.66 20.5V14.325H132.83V20.5H131.66ZM140.745 20.63C140.398 20.63 140.069 20.5867 139.757 20.5C139.453 20.4047 139.172 20.2747 138.912 20.11C138.652 19.9367 138.426 19.733 138.236 19.499L138.99 18.745C139.215 19.0223 139.475 19.2303 139.77 19.369C140.064 19.499 140.394 19.564 140.758 19.564C141.122 19.564 141.403 19.5033 141.603 19.382C141.802 19.252 141.902 19.0743 141.902 18.849C141.902 18.6237 141.819 18.4503 141.655 18.329C141.499 18.199 141.295 18.095 141.044 18.017C140.792 17.9303 140.524 17.848 140.238 17.77C139.96 17.6833 139.696 17.575 139.445 17.445C139.193 17.315 138.985 17.1373 138.821 16.912C138.665 16.6867 138.587 16.3877 138.587 16.015C138.587 15.6423 138.678 15.3217 138.86 15.053C139.042 14.7757 139.293 14.5633 139.614 14.416C139.943 14.2687 140.337 14.195 140.797 14.195C141.282 14.195 141.711 14.2817 142.084 14.455C142.465 14.6197 142.777 14.871 143.02 15.209L142.266 15.963C142.092 15.7377 141.876 15.5643 141.616 15.443C141.364 15.3217 141.078 15.261 140.758 15.261C140.42 15.261 140.16 15.3217 139.978 15.443C139.804 15.5557 139.718 15.716 139.718 15.924C139.718 16.132 139.796 16.2923 139.952 16.405C140.108 16.5177 140.311 16.613 140.563 16.691C140.823 16.769 141.091 16.8513 141.369 16.938C141.646 17.016 141.91 17.1243 142.162 17.263C142.413 17.4017 142.617 17.588 142.773 17.822C142.937 18.056 143.02 18.3637 143.02 18.745C143.02 19.3257 142.812 19.785 142.396 20.123C141.988 20.461 141.438 20.63 140.745 20.63ZM147.19 20.63C146.574 20.63 146.02 20.4913 145.526 20.214C145.032 19.928 144.642 19.5423 144.356 19.057C144.07 18.5717 143.927 18.0213 143.927 17.406C143.927 16.7993 144.065 16.2533 144.343 15.768C144.629 15.2827 145.01 14.9013 145.487 14.624C145.972 14.338 146.514 14.195 147.112 14.195C147.684 14.195 148.186 14.325 148.62 14.585C149.062 14.845 149.404 15.2047 149.647 15.664C149.898 16.1233 150.024 16.6433 150.024 17.224C150.024 17.3107 150.019 17.406 150.011 17.51C150.002 17.6053 149.985 17.718 149.959 17.848H144.746V16.873H149.335L148.906 17.25C148.906 16.834 148.832 16.483 148.685 16.197C148.537 15.9023 148.329 15.677 148.061 15.521C147.792 15.3563 147.467 15.274 147.086 15.274C146.687 15.274 146.336 15.3607 146.033 15.534C145.729 15.7073 145.495 15.95 145.331 16.262C145.166 16.574 145.084 16.9423 145.084 17.367C145.084 17.8003 145.17 18.1817 145.344 18.511C145.517 18.8317 145.764 19.083 146.085 19.265C146.405 19.4383 146.774 19.525 147.19 19.525C147.536 19.525 147.853 19.4643 148.139 19.343C148.433 19.2217 148.685 19.0397 148.893 18.797L149.647 19.564C149.352 19.9107 148.988 20.175 148.555 20.357C148.13 20.539 147.675 20.63 147.19 20.63Z" fill="white"/>
</svg>
